<svg width="116" height="35" viewBox="0 0 116 35" fill="none" xmlns="http://www.w3.org/2000/svg">
<path d="M14.358 19.7858H5.71039L5.66427 14.4819H12.6746C13.9353 14.4819 14.9422 14.3436 15.6956 14.0669C16.4489 13.7748 16.9946 13.352 17.3328 12.7985C17.6864 12.2451 17.8632 11.5533 17.8632 10.7231C17.8632 9.76993 17.6864 9.00125 17.3328 8.41706C16.9792 7.83286 16.4181 7.41008 15.6494 7.14873C14.8961 6.87201 13.9199 6.73364 12.7208 6.73364H8.75437V34.0602H0.660156V0.484269H12.7208C14.7962 0.484269 16.6487 0.676439 18.2783 1.06078C19.9079 1.42975 21.2916 1.99857 22.4292 2.76725C23.5822 3.53593 24.4585 4.50447 25.0581 5.67286C25.6577 6.82589 25.9574 8.18645 25.9574 9.75456C25.9574 11.1228 25.6653 12.4065 25.0811 13.6057C24.497 14.8048 23.5207 15.781 22.1525 16.5343C20.7996 17.2723 18.9471 17.6566 16.5949 17.6873L14.358 19.7858ZM14.0352 34.0602H3.75025L6.5175 27.8339H14.0352C15.1421 27.8339 16.0261 27.6648 16.6872 27.3266C17.3636 26.973 17.8479 26.5118 18.14 25.943C18.4474 25.3588 18.6012 24.7131 18.6012 24.0059C18.6012 23.145 18.4551 22.3994 18.163 21.769C17.8863 21.1387 17.4405 20.6545 16.8255 20.3162C16.2106 19.9626 15.3881 19.7858 14.358 19.7858H7.55522L7.60134 14.4819H15.7417L17.6326 16.6035C19.8772 16.5113 21.6528 16.8264 22.9596 17.549C24.2817 18.2715 25.2272 19.2247 25.796 20.4085C26.3648 21.5922 26.6493 22.8298 26.6493 24.1212C26.6493 26.3196 26.1727 28.1568 25.2195 29.6326C24.2817 31.1085 22.875 32.2154 20.9995 32.9534C19.1239 33.6913 16.8025 34.0602 14.0352 34.0602Z" fill="#00A2FF"/>
<path d="M53.3302 27.8339V34.0602H36.3577V27.8339H53.3302ZM39.2402 0.484269V34.0602H31.146V0.484269H39.2402Z" fill="#00A2FF"/>
<path d="M83.6777 16.6035V17.9641C83.6777 20.5315 83.3164 22.8375 82.5938 24.8822C81.8867 26.9115 80.8797 28.6487 79.5729 30.0939C78.2662 31.5236 76.7211 32.6228 74.9378 33.3915C73.1544 34.1448 71.1866 34.5215 69.0343 34.5215C66.8666 34.5215 64.8834 34.1448 63.0847 33.3915C61.3014 32.6228 59.7487 31.5236 58.4265 30.0939C57.1198 28.6487 56.1051 26.9115 55.3825 24.8822C54.6754 22.8375 54.3218 20.5315 54.3218 17.9641V16.6035C54.3218 14.0361 54.6754 11.7301 55.3825 9.68538C56.1051 7.64069 57.1121 5.90347 58.4035 4.47372C59.7102 3.0286 61.2553 1.92939 63.0386 1.17608C64.8373 0.407401 66.8205 0.0230604 68.9882 0.0230604C71.1405 0.0230604 73.1083 0.407401 74.8917 1.17608C76.6904 1.92939 78.2431 3.0286 79.5499 4.47372C80.8566 5.90347 81.8713 7.64069 82.5938 9.68538C83.3164 11.7301 83.6777 14.0361 83.6777 16.6035ZM75.4682 17.9641V16.5574C75.4682 14.897 75.3221 13.4365 75.03 12.1759C74.7533 10.8999 74.3382 9.83143 73.7848 8.97051C73.2313 8.10958 72.5472 7.46389 71.7324 7.03343C70.933 6.58759 70.0182 6.36468 68.9882 6.36468C67.912 6.36468 66.9743 6.58759 66.1748 7.03343C65.3754 7.46389 64.7066 8.10958 64.1686 8.97051C63.6305 9.83143 63.2231 10.8999 62.9464 12.1759C62.685 13.4365 62.5543 14.897 62.5543 16.5574V17.9641C62.5543 19.609 62.685 21.0695 62.9464 22.3456C63.2231 23.6062 63.6305 24.6747 64.1686 25.551C64.722 26.4272 65.3985 27.0883 66.1979 27.5341C67.0127 27.98 67.9582 28.2029 69.0343 28.2029C70.0643 28.2029 70.9791 27.98 71.7785 27.5341C72.5779 27.0883 73.2467 26.4272 73.7848 25.551C74.3382 24.6747 74.7533 23.6062 75.03 22.3456C75.3221 21.0695 75.4682 19.609 75.4682 17.9641Z" fill="#00A2FF"/>
<path d="M115.34 16.1192V29.9094C114.771 30.5397 113.895 31.2161 112.711 31.9387C111.542 32.6459 110.067 33.2531 108.283 33.7605C106.5 34.2678 104.401 34.5215 101.988 34.5215C99.7585 34.5215 97.7369 34.1679 95.9228 33.4607C94.1087 32.7381 92.5483 31.685 91.2415 30.3014C89.9501 28.9024 88.9508 27.1959 88.2437 25.182C87.5518 23.1527 87.2059 20.8313 87.2059 18.2177V16.3498C87.2059 13.7363 87.5595 11.4149 88.2667 9.38559C88.9739 7.35628 89.9655 5.6498 91.2415 4.26618C92.5329 2.86718 94.0472 1.8064 95.7844 1.08384C97.537 0.36128 99.4587 0 101.55 0C104.64 0 107.153 0.491956 109.09 1.47587C111.027 2.44441 112.496 3.7896 113.495 5.51144C114.494 7.21791 115.101 9.19342 115.317 11.438H107.545C107.391 10.3311 107.099 9.39328 106.669 8.6246C106.254 7.84054 105.654 7.24866 104.87 6.84895C104.086 6.43386 103.072 6.22632 101.826 6.22632C100.858 6.22632 99.9737 6.43386 99.1743 6.84895C98.3902 7.26403 97.7215 7.89435 97.168 8.7399C96.6146 9.57008 96.1841 10.6155 95.8767 11.8761C95.5846 13.1368 95.4385 14.6126 95.4385 16.3037V18.2177C95.4385 19.8935 95.5769 21.3616 95.8536 22.6223C96.1457 23.8829 96.5762 24.936 97.145 25.7816C97.7292 26.6117 98.4671 27.2421 99.3588 27.6725C100.266 28.0876 101.334 28.2951 102.564 28.2951C103.425 28.2951 104.163 28.226 104.778 28.0876C105.393 27.9339 105.9 27.7494 106.3 27.5341C106.715 27.3035 107.03 27.0883 107.245 26.8885V21.6768H101.619V16.1192H115.34Z" fill="#00A2FF"/>
</svg>
